# xmcd
#
# Track frame offsets: 
#        150
#        15267
#        28194
#        40250
#        53222
#        68500
#        80862
#        96697
#        109270
#        124195
#        135170
#        149774
#        164785
#        179002
#        191537
#        206045
#        219762
#        231907
#        243931
#        256872
#        272057
#        287392
#        300642
#        315080
#        330461
#
# Disc length: 4532 seconds
#
# Revision: 2
# Processed by: cddbd v1.5.2PL0 Copyright (c) Steve Scherf et al.
# Submitted via: ExactAudioCopy v0.99pb5
#
DISCID=6b11b219
DTITLE=Various Artist - Mega Fête CD4
DYEAR=1996
DGENRE=Pop
TTITLE0=Début De Soirée - La Vie La Nuit
TTITLE1=Lagaf' - La Zoubida
TTITLE2=Les Charlots - Y'a D'la Joie
TTITLE3=Marius Trésor - Sacré Marius
TTITLE4=Michel Pruvost - C'Est La Faute A L'Accordéon
TTITLE5=''Momo'' Larcange and Son Orchestre - Sombreros Et Mantilles
TTITLE6=Les Charlots - Le Café Au Lait Au Lit
TTITLE7=Escarède - Félicie
TTITLE8=El Chato - Solo Cantare
TTITLE9=Juanito - Bamboleo
TTITLE10=Alma Ritano - Adios A La Mama
TTITLE11=Les Aristocrates - Rendez-Vous Latino
TTITLE12=Malavoi - Depri Kow
TTITLE13=Chica Bahia - Paradise Mi Amor
TTITLE14=DJ Chroma - Nana Hey
TTITLE15=Dennis Azor - A La Li La
TTITLE16=Hippolyte Lafleur - Sans Chemise, Sans Pantalon
TTITLE17=Les Fétards - Si Tu Vas A Rio
TTITLE18=Gary Low - La Colegiala
TTITLE19=Stop H.I.V. - Latex Reflex
TTITLE20=Bézu - Merci Patron
TTITLE21=Les Fanatiques - Ce Soir On Vous Met Le Feu
TTITLE22=Ti' Bonheur Créole - Philomène
TTITLE23=Elmer Food Beat - Le Plastique C'Est Fantastique
TTITLE24=Michel Fugain - Les Sud-Américaines (Live)
EXTD=
EXTT0=
EXTT1=
EXTT2=
EXTT3=
EXTT4=
EXTT5=
EXTT6=
EXTT7=
EXTT8=
EXTT9=
EXTT10=
EXTT11=
EXTT12=
EXTT13=
EXTT14=
EXTT15=
EXTT16=
EXTT17=
EXTT18=
EXTT19=
EXTT20=
EXTT21=
EXTT22=
EXTT23=
EXTT24=
PLAYORDER=
